<?xml version="1.0" encoding="UTF-8" standalone="no"?>
<!-- Created with Inkscape (http://www.inkscape.org/) -->

<svg
   xmlns:dc="http://purl.org/dc/elements/1.1/"
   xmlns:cc="http://creativecommons.org/ns#"
   xmlns:rdf="http://www.w3.org/1999/02/22-rdf-syntax-ns#"
   xmlns:svg="http://www.w3.org/2000/svg"
   xmlns="http://www.w3.org/2000/svg"
   xmlns:sodipodi="http://sodipodi.sourceforge.net/DTD/sodipodi-0.dtd"
   xmlns:inkscape="http://www.inkscape.org/namespaces/inkscape"
   id="svg2"
   version="1.1"
   inkscape:version="0.48.4 r9939"
   width="377.5"
   height="91.25"
   xml:space="preserve"
   sodipodi:docname="gobierno color.eps"><metadata
     id="metadata8"><rdf:RDF><cc:Work
         rdf:about=""><dc:format>image/svg+xml</dc:format><dc:type
           rdf:resource="http://purl.org/dc/dcmitype/StillImage" /><dc:title></dc:title></cc:Work></rdf:RDF></metadata><defs
     id="defs6" /><sodipodi:namedview
     pagecolor="#ffffff"
     bordercolor="#666666"
     borderopacity="1"
     objecttolerance="10"
     gridtolerance="10"
     guidetolerance="10"
     inkscape:pageopacity="0"
     inkscape:pageshadow="2"
     inkscape:window-width="1920"
     inkscape:window-height="1014"
     id="namedview4"
     showgrid="false"
     inkscape:zoom="2.8996061"
     inkscape:cx="190.7009"
     inkscape:cy="45.625"
     inkscape:window-x="0"
     inkscape:window-y="27"
     inkscape:window-maximized="1"
     inkscape:current-layer="g10" /><g
     id="g10"
     inkscape:groupmode="layer"
     inkscape:label="ink_ext_XXXXXX"
     transform="matrix(1.25,0,0,-1.25,0,91.25)"><g
       id="g12"
       transform="scale(0.1,0.1)"><path
         d="m 7.77344,7.96094 715.297,0 0,715.293 -715.297,0 0,-715.293 z"
         style="fill:#ffffff;fill-opacity:1;fill-rule:nonzero;stroke:none"
         id="path14" /><path
         d="m 40.2891,690.742 650.2619,0 0.004,-650.2693 -650.2659,0 0,650.2693"
         style="fill:#fddd04;fill-opacity:1;fill-rule:nonzero;stroke:none"
         id="path16" /><path
         d="m 690.555,565.883 c 0,0 -142.309,-29.11 -156.203,-31.293 -56.137,-8.828 -114.598,0 -163.149,21.168 -32.449,17.258 -66.043,32.445 -103.094,37.508 -23.699,3.679 -49.242,3.453 -72.945,0.23 L 90.9258,574.855 c -16.5664,-3.218 -33.8242,-6.21 -50.625,-8.972 l 0,118.277 c 25.543,6.445 54.3047,10.356 80.3082,1.84 15.418,-3.449 28.766,-12.426 43.032,-19.328 28.765,-15.188 56.379,-33.367 88.589,-40.5 42.805,-11.965 93.43,-9.203 136.231,0.687 l 97.566,17.723 101.938,18.406 102.59,21.172 0,-118.277"
         style="fill:#ed1c24;fill-opacity:1;fill-rule:nonzero;stroke:none"
         id="path18" /><path
         d="m 176.527,190.48 c 65.352,15.879 139.907,7.364 197.207,-20.937 49.243,-29.453 111.371,-41.883 171.43,-31.066 l 145.391,26.238 0,-117.8205 c -20.477,-4.375 -40.457,-8.5156 -62.09,-5.2929 -11.504,1.8398 -22.551,4.8281 -32.906,9.4336 L 520.082,90.6133 C 476.824,109.941 423.668,117.074 373.734,107.641 L 61.4727,50.3438 40.3008,46.8945 l 0,117.8125 26.0039,5.293 68.3433,12.656 c 13.805,2.532 28.305,5.063 41.879,7.824 l 0,0"
         style="fill:#ed1c24;fill-opacity:1;fill-rule:evenodd;stroke:none"
         id="path20" /><path
         d="m 40.3008,379.438 0,90.664 268.7692,49.015 c 66.965,8.285 132.317,-4.601 188.004,-33.824 50.391,-26.465 116.434,-33.141 174.883,-19.102 l 18.598,3.914 0,-90.667 -59.328,33.828 c -41.879,19.558 -91.582,27.843 -141.059,20.937 L 324.949,404.063 C 305.16,400.379 265.582,393.246 265.582,393.246 L 115.086,365.402 c -30.9454,-4.832 -53.3829,1.614 -74.7852,14.036"
         style="fill:#ed1c24;fill-opacity:1;fill-rule:nonzero;stroke:none"
         id="path22" /><path
         d="m 690.555,348.344 0,-89.289 -266.43,-49.016 c -66.961,-8.281 -132.312,4.606 -188,33.828 -50.395,26.465 -116.434,33.137 -174.8828,19.102 l -20.9414,-3.914 0,89.285 61.6722,-32.449 c 41.879,-19.559 91.582,-27.844 141.058,-20.938 l 165.219,30.145 c 19.789,3.679 59.367,10.812 59.367,10.812 l 150.492,27.844 c 29.188,4.637 51.891,-3.742 72.446,-15.41"
         style="fill:#ed1c24;fill-opacity:1;fill-rule:nonzero;stroke:none"
         id="path24" /><path
         d="m 755.535,337.082 0,-296.582 99.156,0 c 100.493,0 159.629,55.1367 159.629,148.516 0,92.929 -60.468,148.066 -163.183,148.066 l -95.602,0 z m 67.141,-236.555 0,177.418 28.906,0 c 60.023,0 92.93,-31.57 92.93,-88.929 0,-58.696 -31.571,-88.489 -93.375,-88.489 l -28.461,0"
         style="fill:#231f20;fill-opacity:1;fill-rule:evenodd;stroke:none"
         id="path26" /><path
         d="m 1038.55,337.082 0,-296.582 196.53,0 0,60.027 -130.28,0 0,67.59 128.95,0 0,60.028 -128.95,0 0,49.355 130.28,0 0,59.582 -196.53,0"
         style="fill:#231f20;fill-opacity:1;fill-rule:nonzero;stroke:none"
         id="path28" /><path
         d="M 1489.95,337.082 1381.9,40.5 l 70.26,0 32.01,90.266 90.71,0 31.57,-90.266 71.59,0 -110.27,296.582 -77.82,0 z m 67.14,-148.957 -55.58,0 7.12,20.453 c 5.78,17.344 8,23.121 9.78,30.238 0.89,2.668 2.67,8.004 4.89,16.008 l 3.11,11.117 c 0.45,1.332 1.34,4.446 2.67,9.782 3.12,-12.45 5.34,-21.344 10.23,-36.016 l 5.33,-16.453 c 3.12,-8.895 4.45,-13.785 4.9,-14.676 l 7.55,-20.453"
         style="fill:#231f20;fill-opacity:1;fill-rule:evenodd;stroke:none"
         id="path30" /><path
         d="m 1689.57,40.5 68.04,0 0,121.836 8.44,0 c 42.69,0 47.14,-4.445 75.59,-77.8165 3.12,-8.0039 4.9,-12.8945 6.24,-15.1172 l 5.77,-13.7851 c 4.01,-9.3359 4.45,-10.2266 7.12,-15.1172 l 81.37,0 c -16.45,18.2305 -30.24,43.1328 -56.47,103.605 -11.56,25.344 -18.23,32.903 -39.58,41.797 34.69,10.672 54.25,36.016 54.25,71.145 0,53.355 -35.13,80.035 -105.82,80.035 l -104.95,0 0,-296.582 z m 68.04,177.863 0,62.25 30.23,0 c 28.91,0 41.8,-9.34 41.8,-30.679 0,-21.344 -14.23,-31.571 -42.68,-31.571 l -29.35,0"
         style="fill:#231f20;fill-opacity:1;fill-rule:evenodd;stroke:none"
         id="path32" /><path
         d="M 1994.89,337.082 1886.84,40.5 l 70.25,0 32.02,90.266 90.71,0 31.57,-90.266 71.59,0 -110.28,296.582 -77.81,0 z m 67.14,-148.957 -55.58,0 7.12,20.453 c 5.77,17.344 8,23.121 9.78,30.238 0.88,2.668 2.67,8.004 4.89,16.008 l 3.11,11.117 c 0.45,1.332 1.33,4.446 2.67,9.782 3.11,-12.45 5.34,-21.344 10.23,-36.016 l 5.33,-16.453 c 3.12,-8.895 4.45,-13.785 4.89,-14.676 l 7.56,-20.453"
         style="fill:#231f20;fill-opacity:1;fill-rule:evenodd;stroke:none"
         id="path34" /><path
         d="m 2407.82,192.129 -66.25,0 0,-93.379 c -12.9,-3.5586 -18.24,-4.0039 -28.46,-4.0039 -50.7,0 -88.04,39.5739 -88.04,93.3789 0,57.805 39.57,96.488 98.26,96.488 29.35,0 53.81,-7.558 84.49,-25.789 l 0,67.586 c -35.13,12.899 -60.03,17.789 -90.27,17.789 -96.04,0 -162.74,-64.472 -162.74,-156.965 0,-91.152 65.37,-152.9567 162.74,-152.9567 30.24,0 62.25,5.3321 90.27,15.5586 l 0,142.2931"
         style="fill:#231f20;fill-opacity:1;fill-rule:nonzero;stroke:none"
         id="path36" /><path
         d="m 2742.63,189.457 c 0,88.488 -65.81,152.965 -155.63,152.965 -87.59,0 -152.52,-65.367 -152.52,-153.852 0,-88.9294 64.93,-153.4059 154.74,-153.4059 89.83,0 153.41,64.0273 153.41,154.2929 z m -70.7,-0.887 c 0,-56.027 -32.9,-93.3786 -82.71,-93.3786 -50.24,0 -84.48,37.7966 -84.48,93.3786 0,55.582 33.35,93.375 83.15,93.375 50.25,0 84.04,-37.351 84.04,-93.375"
         style="fill:#231f20;fill-opacity:1;fill-rule:evenodd;stroke:none"
         id="path38" /><path
         d="m 2768.23,337.082 0,-296.582 67.59,0 0,120.945 c 0,7.114 0,12.45 0,15.563 l -0.44,15.562 -0.45,16.899 c 0,2.222 0,6.668 -0.89,14.226 l -0.44,11.118 c 2.22,-4.446 3.55,-7.559 4.89,-9.782 0.44,-0.445 3.11,-4.89 8,-13.785 l 12.01,-20.453 c 0.44,-0.891 4.89,-7.559 12.89,-20.008 l 11.56,-18.676 72.48,-111.609 62.7,0 0,296.582 -67.59,0 0,-109.828 c 0,-27.566 0.89,-48.91 2.22,-66.695 0,-2.227 0.45,-5.782 0.89,-10.676 -8.89,18.676 -20.9,38.687 -37.35,64.031 l -80.48,123.168 -67.59,0"
         style="fill:#231f20;fill-opacity:1;fill-rule:nonzero;stroke:none"
         id="path40" /><path
         d="m 1003.75,546.195 -66.258,0 0,-93.375 c -12.894,-3.558 -18.23,-4.004 -28.457,-4.004 -50.691,0 -88.043,39.575 -88.043,93.379 0,57.805 39.578,96.489 98.27,96.489 29.347,0 53.804,-7.559 84.488,-25.789 l 0,67.585 c -35.129,12.899 -60.031,17.79 -90.27,17.79 -96.042,0 -162.742,-64.477 -162.742,-156.961 0,-91.157 65.364,-152.965 162.742,-152.965 30.239,0 62.254,5.336 90.27,15.562 l 0,142.289"
         style="fill:#231f20;fill-opacity:1;fill-rule:nonzero;stroke:none"
         id="path42" /><path
         d="m 1338.22,543.527 c 0,88.489 -65.81,152.961 -155.63,152.961 -87.59,0 -152.51,-65.363 -152.51,-153.847 0,-88.93 64.92,-153.407 154.74,-153.407 89.82,0 153.4,64.032 153.4,154.293 z m -70.7,-0.886 c 0,-56.028 -32.9,-93.379 -82.7,-93.379 -50.25,0 -84.49,37.797 -84.49,93.379 0,55.582 33.35,93.379 83.15,93.379 50.25,0 84.04,-37.352 84.04,-93.379"
         style="fill:#231f20;fill-opacity:1;fill-rule:evenodd;stroke:none"
         id="path44" /><path
         d="m 1360.41,691.156 0,-296.586 122.73,0 c 65.36,0 103.6,32.461 103.6,88.039 0,38.243 -21.79,65.813 -61.81,77.371 27.13,13.34 40.47,34.239 40.47,60.918 0.44,47.133 -31.57,70.258 -95.6,70.258 l -109.39,0 z m 67.59,-110.722 0,54.25 28.9,0 c 31.57,0 42.69,-7.114 42.69,-26.235 0,-20.008 -11.56,-28.015 -40.46,-28.015 l -31.13,0 z m 0,-125.391 0,68.922 37.35,0 c 35.13,0 49.8,-9.781 49.8,-34.684 0,-24.008 -14.23,-34.238 -47.13,-34.238 l -40.02,0"
         style="fill:#231f20;fill-opacity:1;fill-rule:evenodd;stroke:none"
         id="path46" /><path
         d="m 1600.72,394.57 66.2539,0 0,296.586 -66.2539,0 0,-296.586 z"
         style="fill:#231f20;fill-opacity:1;fill-rule:nonzero;stroke:none"
         id="path48" /><path
         d="m 1695.82,691.156 0,-296.586 196.54,0 0,60.028 -130.28,0 0,67.59 128.95,0 0,60.027 -128.95,0 0,49.355 130.28,0 0,59.586 -196.54,0"
         style="fill:#231f20;fill-opacity:1;fill-rule:nonzero;stroke:none"
         id="path50" /><path
         d="m 1921.1,394.57 68.03,0 0,121.836 8.45,0 c 42.69,0 47.13,-4.449 75.59,-77.816 3.12,-8.004 4.9,-12.895 6.23,-15.117 l 5.78,-13.785 c 4,-9.336 4.45,-10.227 7.11,-15.118 l 81.37,0 c -16.45,18.231 -30.23,43.129 -56.46,103.606 -11.57,25.344 -18.24,32.902 -39.58,41.797 34.68,10.672 54.25,36.015 54.25,71.144 0,53.36 -35.13,80.039 -105.83,80.039 l -104.94,0 0,-296.586 z m 68.03,177.864 0,62.25 30.24,0 c 28.9,0 41.8,-9.34 41.8,-30.68 0,-21.344 -14.23,-31.57 -42.69,-31.57 l -29.35,0"
         style="fill:#231f20;fill-opacity:1;fill-rule:evenodd;stroke:none"
         id="path52" /><path
         d="m 2158.18,691.156 0,-296.586 67.59,0 0,120.946 c 0,7.113 0,12.453 0,15.562 l -0.44,15.563 -0.45,16.898 c 0,2.223 0,6.668 -0.88,14.227 l -0.45,11.121 c 2.22,-4.449 3.56,-7.563 4.89,-9.785 0.45,-0.446 3.11,-4.891 8.01,-13.786 l 12,-20.453 c 0.44,-0.886 4.89,-7.558 12.9,-20.008 l 11.56,-18.675 72.47,-111.61 62.7,0 0,296.586 -67.59,0 0,-109.832 c 0,-27.57 0.89,-48.91 2.22,-66.695 0,-2.227 0.45,-5.781 0.9,-10.672 -8.9,18.672 -20.9,38.684 -37.36,64.031 l -80.48,123.168 -67.59,0"
         style="fill:#231f20;fill-opacity:1;fill-rule:nonzero;stroke:none"
         id="path54" /><path
         d="m 2743.11,543.527 c 0,88.489 -65.81,152.961 -155.63,152.961 -87.59,0 -152.51,-65.363 -152.51,-153.847 0,-88.93 64.92,-153.407 154.74,-153.407 89.82,0 153.4,64.032 153.4,154.293 z m -70.7,-0.886 c 0,-56.028 -32.9,-93.379 -82.7,-93.379 -50.25,0 -84.49,37.797 -84.49,93.379 0,55.582 33.35,93.379 83.16,93.379 50.24,0 84.03,-37.352 84.03,-93.379"
         style="fill:#231f20;fill-opacity:1;fill-rule:evenodd;stroke:none"
         id="path56" /></g></g></svg>